<svg id="Capa_1" enable-background="new 0 0 510 510" height="512" viewBox="0 0 510 510" width="512" xmlns="http://www.w3.org/2000/svg" xmlns:xlink="http://www.w3.org/1999/xlink"><linearGradient id="lg1"><stop offset="0" stop-color="#8a7889"/><stop offset="1" stop-color="#6e566e"/></linearGradient><linearGradient id="SVGID_1_" gradientUnits="userSpaceOnUse" x1="132.559" x2="240.559" xlink:href="#lg1" y1="69.269" y2="261.269"/><linearGradient id="lg2"><stop offset="0" stop-color="#ff637b"/><stop offset="1" stop-color="#e63950"/></linearGradient><linearGradient id="SVGID_2_" gradientUnits="userSpaceOnUse" x1="255" x2="255" xlink:href="#lg2" y1="432.803" y2="512.706"/><linearGradient id="SVGID_3_" gradientUnits="userSpaceOnUse" x1="372.26" x2="278.26" y1="526.598" y2="346.598"><stop offset="0" stop-color="#e63950" stop-opacity="0"/><stop offset=".0467" stop-color="#e4354b" stop-opacity=".047"/><stop offset=".4669" stop-color="#d31822" stop-opacity=".467"/><stop offset=".7991" stop-color="#c90709" stop-opacity=".799"/><stop offset="1" stop-color="#c50000"/></linearGradient><linearGradient id="lg3"><stop offset="0" stop-color="#fce9cb"/><stop offset="1" stop-color="#ffbd95"/></linearGradient><linearGradient id="SVGID_4_" gradientUnits="userSpaceOnUse" x1="115.631" x2="115.631" xlink:href="#lg3" y1="150.667" y2="279.292"/><linearGradient id="SVGID_5_" gradientUnits="userSpaceOnUse" x1="394.369" x2="394.369" xlink:href="#lg3" y1="150.667" y2="279.292"/><linearGradient id="SVGID_6_" gradientUnits="userSpaceOnUse" x1="186.343" x2="309.565" xlink:href="#lg3" y1="134.548" y2="329.154"/><linearGradient id="SVGID_7_" gradientUnits="userSpaceOnUse" x1="255" x2="255" y1="299.333" y2="12.886"><stop offset="0" stop-color="#f9dbb7" stop-opacity="0"/><stop offset=".0209" stop-color="#f7d2b0" stop-opacity=".021"/><stop offset=".1667" stop-color="#ea9b82" stop-opacity=".167"/><stop offset=".3134" stop-color="#df6c5a" stop-opacity=".313"/><stop offset=".4582" stop-color="#d5453a" stop-opacity=".458"/><stop offset=".6006" stop-color="#ce2720" stop-opacity=".601"/><stop offset=".7399" stop-color="#c9110e" stop-opacity=".74"/><stop offset=".8747" stop-color="#c60404" stop-opacity=".875"/><stop offset="1" stop-color="#c50000"/></linearGradient><linearGradient id="SVGID_8_" gradientUnits="userSpaceOnUse" x1="182.287" x2="290.287" xlink:href="#lg1" y1="41.297" y2="233.297"/><linearGradient id="SVGID_9_" gradientUnits="userSpaceOnUse" x1="397.666" x2="333.666" y1="128.544" y2="165.211"><stop offset="0" stop-color="#6e566e" stop-opacity="0"/><stop offset=".2944" stop-color="#674d66" stop-opacity=".294"/><stop offset="1" stop-color="#593b56"/></linearGradient><linearGradient id="SVGID_10_" gradientUnits="userSpaceOnUse" x1="255" x2="255" y1="237.063" y2="418.51"><stop offset="0" stop-color="#faa68e" stop-opacity="0"/><stop offset="1" stop-color="#c9766e"/></linearGradient><linearGradient id="SVGID_11_" gradientUnits="userSpaceOnUse" x1="264.062" x2="249.562" xlink:href="#lg2" y1="398.038" y2="338.538"/><linearGradient id="SVGID_12_" gradientUnits="userSpaceOnUse" x1="255" x2="255" y1="368.667" y2="394.333"><stop offset="0" stop-color="#ff9690"/><stop offset="1" stop-color="#f9545b"/></linearGradient><linearGradient id="SVGID_13_" gradientTransform="matrix(.375 -.927 .927 .375 1131.248 -2079.856)" gradientUnits="userSpaceOnUse" x1="-2501.326" x2="-2512.799" xlink:href="#lg1" y1="-12.968" y2="7.852"/><linearGradient id="SVGID_14_" gradientTransform="matrix(-.375 -.927 -.927 .375 -2890.361 -2079.856)" gradientUnits="userSpaceOnUse" x1="-3351.838" x2="-3363.31" xlink:href="#lg1" y1="-2116.656" y2="-2095.835"/><linearGradient id="lg4"><stop offset="0" stop-color="#ffda2d"/><stop offset="1" stop-color="#fdbf00"/></linearGradient><linearGradient id="SVGID_15_" gradientTransform="matrix(.91 .415 -.415 .91 49.891 -68.382)" gradientUnits="userSpaceOnUse" x1="34.605" x2="81.83" xlink:href="#lg4" y1="113.297" y2="152.445"/><linearGradient id="SVGID_16_" gradientTransform="matrix(.507 .862 -.862 .507 -743.273 594.57)" gradientUnits="userSpaceOnUse" x1="-89.18" x2="-41.957" xlink:href="#lg4" y1="-1015.741" y2="-976.595"/><linearGradient id="SVGID_17_" gradientTransform="matrix(.983 -.183 -.183 -.983 230.313 -1541.809)" gradientUnits="userSpaceOnUse" x1="-521.051" x2="-473.829" xlink:href="#lg4" y1="-1631.669" y2="-1592.524"/><linearGradient id="SVGID_18_" gradientTransform="matrix(-.91 .415 .415 .91 56.245 -68.382)" gradientUnits="userSpaceOnUse" x1="-332.897" x2="-285.671" xlink:href="#lg4" y1="280.774" y2="319.922"/><linearGradient id="SVGID_19_" gradientTransform="matrix(-.507 .862 .862 .507 849.409 594.57)" gradientUnits="userSpaceOnUse" x1="-293.934" x2="-246.71" xlink:href="#lg4" y1="-667.63" y2="-628.484"/><linearGradient id="SVGID_20_" gradientTransform="matrix(-.983 -.183 .183 -.983 -124.177 -1541.809)" gradientUnits="userSpaceOnUse" x1="-918.104" x2="-870.882" xlink:href="#lg4" y1="-1557.811" y2="-1518.667"/><g><g><g><path d="m90.934 468.62h328.132c13.539-98.333 18.525-197.312 14.96-296.121-3.475-96.29-82.673-172.499-179.026-172.499-96.353 0-175.551 76.209-179.026 172.499-3.566 98.808 1.421 197.788 14.96 296.121z" fill="url(#SVGID_1_)"/><path d="m486.754 463.53c12.805 14.415 3.674 37.25-15.537 38.897-55.03 4.716-127.891 7.573-207.827 7.573-88.483 0-168.293-3.502-224.84-9.136-18.978-1.891-28.082-24.562-15.317-38.732.096-.107.192-.213.288-.32 56.824-63.133 139.197-102.821 230.831-102.821 90.65 0 172.172 38.793 228.952 100.717 1.16 1.265 2.31 2.539 3.45 3.822z" fill="url(#SVGID_2_)"/><path d="m471.22 502.43c-51.59 4.42-118.86 7.21-192.94 7.54l-.01-.01h-.01l-131.73-131.73c33.59-12.44 69.91-19.24 107.82-19.24 90.65 0 172.17 38.79 228.95 100.72 1.16 1.26 2.31 2.54 3.45 3.82 12.81 14.42 3.68 37.25-15.53 38.9z" fill="url(#SVGID_3_)"/><g><path d="m115.631 280.922c-16.863 0-30.534-13.67-30.534-30.534v-18.158c0-16.863 13.67-30.534 30.534-30.534 16.863 0 30.534 13.67 30.534 30.534v18.159c0 16.863-13.671 30.533-30.534 30.533z" fill="url(#SVGID_4_)"/><path d="m394.369 280.922c-16.863 0-30.534-13.67-30.534-30.534v-18.158c0-16.863 13.67-30.534 30.534-30.534 16.863 0 30.534 13.67 30.534 30.534v18.159c-.001 16.863-13.671 30.533-30.534 30.533z" fill="url(#SVGID_5_)"/></g><path d="m255 428.583c76.292 0 139.053-60.317 141.809-136.559 1.182-32.689 1.182-65.401 0-98.089-2.757-76.242-65.517-136.559-141.809-136.559-76.291 0-139.052 60.317-141.808 136.559-1.182 32.689-1.182 65.401 0 98.089 2.756 76.241 65.516 136.559 141.808 136.559z" fill="url(#SVGID_6_)"/><path d="m255 57.376c-76.291 0-139.052 60.317-141.808 136.559-.422 11.686-.687 74.884-.808 86.574h285.232c-.12-11.69-.385-74.887-.808-86.573-2.756-76.243-65.516-136.56-141.808-136.56z" fill="url(#SVGID_7_)"/><path d="m432.831 201.696c-.179-9.311-.428-18.621-.76-27.929-3.407-95.456-81.554-171.181-177.071-171.181-95.249 0-173.605 75.306-177.046 170.492-.297 8.202-.517 25.41-.694 33.614l168.502-23.144c41.598-5.713 79.221-27.718 104.594-61.173l17.926 57.755c3.296 10.62 12.085 18.622 22.967 20.91 2.074.436 4.188.656 6.308.656z" fill="url(#SVGID_8_)"/><path d="m374.156 48.714c-2.931 37.404-23.801 73.661-23.801 73.661l17.926 57.755c3.296 10.62 12.085 18.622 22.967 20.91 2.074.436 4.188.656 6.308.656h35.274c-.179-9.311-.428-18.621-.76-27.929-1.771-49.652-23.772-93.958-57.914-125.053z" fill="url(#SVGID_9_)"/><path d="m263.749 315.333h-17.499c-14.023 0-24.949-10.339-23.449-22.19l9.149-72.289h46.098l9.149 72.289c1.501 11.851-9.424 22.19-23.448 22.19z" fill="url(#SVGID_10_)"/><g><path d="m299.928 354.114c-.189-4.666-2.949-8.395-7.326-9.576-24.52-6.616-50.686-6.616-75.205 0-4.377 1.181-7.136 4.909-7.326 9.576-.733 18.046 3.576 32.858 11.55 44.999 1.617 2.461 4.597 4.276 7.874 4.825 17.134 2.871 33.874 2.871 51.008 0 3.277-.549 6.258-2.364 7.874-4.825 7.976-12.141 12.284-26.953 11.551-44.999z" fill="url(#SVGID_11_)"/><path d="m286.528 384.866c1.742 2.67.5 6.901-2.114 7.206-7.486.874-17.398 1.403-28.273 1.403-12.037 0-22.894-.649-30.587-1.692-2.582-.35-3.82-4.55-2.084-7.175.013-.02.026-.039.039-.059 7.73-11.695 18.936-19.047 31.402-19.047 12.332 0 23.422 7.186 31.146 18.658.159.232.315.468.471.706z" fill="url(#SVGID_12_)"/></g><g><path d="m214.878 235.104c-.008.02-.016.039-.024.059-4.314 10.45-15.931 23.103-46.769 24.033-4.691.142-8.609-3.547-8.75-8.238-.14-4.692 3.547-8.609 8.238-8.75 12.004-.362 27.225-3.004 31.571-13.531 1.791-4.339 6.76-6.403 11.098-4.612 4.318 1.782 6.384 6.715 4.636 11.039z" fill="url(#SVGID_13_)"/><path d="m295.122 235.104c.008.02.016.039.024.059 4.314 10.45 15.931 23.103 46.769 24.033 4.691.142 8.609-3.547 8.75-8.238.14-4.692-3.547-8.609-8.238-8.75-12.004-.362-27.225-3.004-31.571-13.531-1.791-4.339-6.76-6.403-11.098-4.612-4.319 1.782-6.384 6.715-4.636 11.039z" fill="url(#SVGID_14_)"/></g></g></g><g><g><g><path d="m57.187 96.832c-5.195-2.366-9.524-6.627-11.94-12.302-.003-.007-.006-.016-.01-.023-.297-.672-1.044-1.005-1.745-.78-11.737 3.803-24.231-1.891-29.06-13.247-2.403-5.648.229-12.176 5.878-14.578 5.65-2.402 12.177.228 14.58 5.879.291.684 1.044 1.029 1.753.798 11.736-3.801 24.228 1.892 29.058 13.242.004.009.007.016.011.025.298.67 1.043 1.004 1.743.777.395-.128.797-.233 1.203-.316 6.014-1.228 11.888 2.653 13.116 8.668 1.159 5.684-2.24 11.238-7.692 12.867-5.797 1.818-11.768 1.326-16.895-1.01z" fill="url(#SVGID_15_)"/></g><g><g><path d="m88.816 64.412c-9.968-4.542-15.578-15.345-13.268-26.352.005-.022.009-.043.013-.063.154-.728-.267-1.429-.976-1.66-11.808-3.621-18.754-15.46-16.19-27.528 1.275-6.004 7.177-9.838 13.182-8.563 6.002 1.269 9.838 7.177 8.563 13.181-.155.73.267 1.435.976 1.663 11.777 3.604 18.731 15.422 16.201 27.47-.004.02-.008.038-.012.058-.154.726.262 1.436.973 1.659 5.817 1.785 9.122 7.913 7.405 13.758-1.73 5.89-7.904 9.263-13.793 7.533-.045-.013-.097-.029-.142-.042-1.013-.314-1.993-.686-2.932-1.114z" fill="url(#SVGID_16_)"/></g><g><path d="m6.515 148.842c-.725-.331-1.426-.744-2.089-1.244-4.902-3.695-5.881-10.665-2.186-15.566 7.427-9.852 20.93-12.368 31.397-5.841.64.39 1.446.241 1.894-.352.013-.018.026-.036.039-.052 7.434-9.809 20.902-12.295 31.355-5.792.04.025.08.051.119.076 5.17 3.31 6.681 10.186 3.371 15.356-3.288 5.136-10.093 6.648-15.252 3.432-.632-.399-1.435-.227-1.879.36-.013.017-.025.034-.038.051-7.434 9.811-20.903 12.316-31.359 5.792-.627-.382-1.446-.241-1.894.353-3.197 4.236-8.841 5.541-13.478 3.427z" fill="url(#SVGID_17_)"/></g></g></g></g><g><g><g><path d="m452.813 96.832c5.195-2.366 9.524-6.627 11.94-12.302.003-.007.006-.016.01-.023.297-.672 1.044-1.005 1.745-.78 11.737 3.803 24.231-1.891 29.06-13.247 2.403-5.648-.229-12.176-5.878-14.578-5.648-2.402-12.175.227-14.578 5.879-.291.684-1.044 1.029-1.753.798-11.736-3.801-24.228 1.892-29.058 13.242-.004.009-.007.016-.011.025-.298.67-1.043 1.004-1.743.777-.395-.128-.797-.233-1.203-.316-6.014-1.228-11.888 2.653-13.116 8.668-1.159 5.684 2.24 11.238 7.692 12.867 5.795 1.818 11.766 1.326 16.893-1.01z" fill="url(#SVGID_18_)"/></g><g><g><path d="m421.184 64.412c9.968-4.542 15.578-15.345 13.269-26.352-.005-.022-.009-.043-.013-.063-.154-.728.267-1.429.976-1.66 11.808-3.621 18.754-15.46 16.19-27.528-1.275-6.004-7.177-9.838-13.182-8.563-6.002 1.269-9.838 7.177-8.563 13.181.155.73-.267 1.435-.976 1.663-11.777 3.604-18.731 15.422-16.201 27.47.004.02.008.038.012.058.154.726-.262 1.436-.973 1.659-5.817 1.785-9.122 7.913-7.405 13.758 1.73 5.89 7.904 9.263 13.793 7.533.045-.013.097-.029.142-.042 1.013-.314 1.992-.686 2.931-1.114z" fill="url(#SVGID_19_)"/></g><g><path d="m503.485 148.842c.725-.331 1.426-.744 2.089-1.244 4.902-3.695 5.881-10.665 2.186-15.566-7.427-9.852-20.93-12.368-31.397-5.841-.64.39-1.446.241-1.894-.352-.013-.018-.026-.036-.039-.052-7.434-9.809-20.902-12.295-31.355-5.792-.04.025-.08.051-.119.076-5.17 3.31-6.681 10.186-3.371 15.356 3.288 5.136 10.093 6.648 15.252 3.432.632-.399 1.435-.227 1.879.36.013.017.026.034.038.051 7.434 9.811 20.903 12.316 31.359 5.792.627-.382 1.446-.241 1.894.353 3.197 4.236 8.841 5.541 13.478 3.427z" fill="url(#SVGID_20_)"/></g></g></g></g></g></svg>