<svg height="512" viewBox="0 0 512 512" width="512" xmlns="http://www.w3.org/2000/svg"><g id="flat"><path d="m184 328v-160a88 88 0 0 1 88-88 88 88 0 0 1 88 88v82.745a109.256 109.256 0 0 1 -32 77.255z" fill="#744630"/><path d="m357.761 328h-171.522a42.239 42.239 0 0 0 -42.239 42.239v99.761a18 18 0 0 0 18 18h220a18 18 0 0 0 18-18v-99.761a42.239 42.239 0 0 0 -42.239-42.239z" fill="#6fbbc6"/><path d="m328 488h54a18 18 0 0 0 18-18v-70h-72z" fill="#e8c8b3"/><path d="m384 440-6.61 39.64a9.988 9.988 0 0 1 -9.86 8.36h-39.53v-56l8-8h24l8 16z" fill="#e8c8b3"/><path d="m356 184h4a0 0 0 0 1 0 0v40a0 0 0 0 1 0 0h-4a20 20 0 0 1 -20-20 20 20 0 0 1 20-20z" fill="#e8c8b3" transform="matrix(-1 0 0 -1 696 408)"/><path d="m144 400h48v64h-48z" fill="#e8c8b3"/><path d="m272 208-8 24h8" fill="none" stroke="#000" stroke-linecap="round" stroke-linejoin="round" stroke-width="16"/><path d="m384 440-6.61 39.64a9.988 9.988 0 0 1 -9.86 8.36h-39.53v-56l8-8h24l8 16z" fill="#c7ac9a"/><path d="m128 234.845v-134.845a24 24 0 0 0 -48 0v134.845a32 32 0 1 0 48 0z" fill="#e4e4e2"/><path d="m112 242.158v-26.158a8 8 0 0 0 -16 0v26.158a16 16 0 1 0 16 0z" fill="#e13029"/><g fill="#f55648"><path d="m80 104h24v16h-24z"/><path d="m80 136h24v16h-24z"/><path d="m80 168h24v16h-24z"/><path d="m56 96h-24a8 8 0 0 1 0-16h24a8 8 0 0 1 0 16z"/><path d="m64 64a7.976 7.976 0 0 1 -5.818-2.508l-15.1-16a8 8 0 0 1 11.631-10.984l15.1 16a8 8 0 0 1 -5.813 13.492z"/><path d="m176 96h-24a8 8 0 0 1 0-16h24a8 8 0 0 1 0 16z"/><path d="m144 64a8 8 0 0 1 -5.816-13.492l15.1-16a8 8 0 0 1 11.635 10.984l-15.1 16a7.977 7.977 0 0 1 -5.819 2.508z"/><path d="m104 48a8 8 0 0 1 -8-8v-16a8 8 0 0 1 16 0v16a8 8 0 0 1 -8 8z"/></g><path d="m431.992 400a8 8 0 0 1 -6.648-12.439l8-12a13.6 13.6 0 0 0 0-15.124 29.556 29.556 0 0 1 0-32.876 13.6 13.6 0 0 0 0-15.124l-8-12a8 8 0 1 1 13.312-8.876l8 12a29.556 29.556 0 0 1 0 32.876 13.6 13.6 0 0 0 0 15.124 29.556 29.556 0 0 1 0 32.876l-8 12a7.992 7.992 0 0 1 -6.664 3.563z" fill="#f7ba61"/><path d="m468.358 448a8 8 0 0 1 -6.648-12.439l8-12a13.6 13.6 0 0 0 0-15.124 29.558 29.558 0 0 1 0-32.875 13.6 13.6 0 0 0 0-15.125l-8-12a8 8 0 0 1 13.312-8.876l8 12a29.553 29.553 0 0 1 0 32.876 13.6 13.6 0 0 0 0 15.125 29.551 29.551 0 0 1 0 32.875l-8 12a7.992 7.992 0 0 1 -6.664 3.563z" fill="#fbb540"/><path d="m104.008 448a7.992 7.992 0 0 1 -6.664-3.563l-8-12a29.556 29.556 0 0 1 0-32.876 13.6 13.6 0 0 0 0-15.124 29.556 29.556 0 0 1 0-32.876l8-12a8 8 0 1 1 13.312 8.876l-8 12a13.6 13.6 0 0 0 0 15.124 29.556 29.556 0 0 1 0 32.876 13.6 13.6 0 0 0 0 15.124l8 12a8 8 0 0 1 -6.648 12.439z" fill="#f7ba61"/><path d="m67.642 496a7.992 7.992 0 0 1 -6.664-3.563l-8-12a29.553 29.553 0 0 1 0-32.876 13.6 13.6 0 0 0 0-15.125 29.551 29.551 0 0 1 0-32.875l8-12a8 8 0 0 1 13.312 8.876l-8 12a13.6 13.6 0 0 0 0 15.124 29.558 29.558 0 0 1 0 32.875 13.6 13.6 0 0 0 0 15.125l8 12a8 8 0 0 1 -6.648 12.439z" fill="#fbb540"/><path d="m352.886 396.4-12.237-20.4h-137.3l-12.237 20.4a44.634 44.634 0 0 0 -2.728 40.6 44.637 44.637 0 0 0 41.005 27h85.218a44.637 44.637 0 0 0 41.005-27 44.634 44.634 0 0 0 -2.726-40.6z" fill="#6fbbc6"/><path d="m359.529 488h-197.529a18 18 0 0 1 -18-18v-30h168l16-16h24l8 16h16l-6.607 39.644a10 10 0 0 1 -9.864 8.356z" fill="#e8c8b3"/><path d="m248 272v23.015a32 32 0 0 1 -24.239 31.045l-7.761 1.94 56 40 56-40-7.761-1.94a32 32 0 0 1 -24.239-31.045v-23.015z" fill="#e8c8b3"/><path d="m296.28 299.23a64.179 64.179 0 0 1 -48.56 0 30.9 30.9 0 0 0 .28-4.21v-23.02h48v23.02a30.9 30.9 0 0 0 .28 4.21z" fill="#c7ac9a"/><path d="m272 296a64 64 0 0 1 -64-64v-56a92.21 92.21 0 0 0 60.987-42.979l3.013-5.021 3.013 5.021a92.21 92.21 0 0 0 60.987 42.979v56a64 64 0 0 1 -64 64z" fill="#e8c8b3"/><path d="m237.8 201.7h-4.687a8 8 0 1 1 0-16h4.687a19.183 19.183 0 0 0 13.656-5.657 8 8 0 1 1 11.314 11.314 35.078 35.078 0 0 1 -24.97 10.343z" fill="#744630"/><path d="m313.114 201.7h-4.686a35.081 35.081 0 0 1 -24.971-10.343 8 8 0 0 1 11.314-11.314 19.187 19.187 0 0 0 13.657 5.657h4.686a8 8 0 0 1 0 16z" fill="#744630"/><circle cx="245.114" cy="205.704" fill="#744630" r="12"/><circle cx="301.114" cy="205.704" fill="#744630" r="12"/><path d="m287.994 264a7.973 7.973 0 0 1 -3.572-.847 27.917 27.917 0 0 0 -24.844 0 8 8 0 0 1 -7.156-14.31 43.984 43.984 0 0 1 39.156 0 8 8 0 0 1 -3.584 15.157z" fill="#744630"/></g></svg>