<svg height="512pt" viewBox="-38 0 512 512.00004" width="512pt" xmlns="http://www.w3.org/2000/svg"><path d="m278.652344 105.433594-25.722656 68.785156h-70.308594l-25.722656-68.785156 60.878906-105.433594zm0 0" fill="#d1dee0"/><path d="m278.652344 105.433594-25.722656 68.785156h-35.152344v-174.21875zm0 0" fill="#b2bdc2"/><path d="m278.652344 406.566406-25.722656-68.785156h-70.308594l-25.722656 68.785156 60.878906 105.433594zm0 0" fill="#d1dee0"/><path d="m278.652344 406.566406-25.722656-68.785156h-35.152344v174.21875zm0 0" fill="#b2bdc2"/><path d="m313.871094 125.070312-45 58.050782 36.96875 59.785156 72.023437-14.273438 57.6875-107.199218zm0 0" fill="#b2bdc2"/><path d="m129.652344 268.984375-71.972656 14.394531-57.679688 107.183594 121.664062-3.632812 53.644532-68.964844zm0 0" fill="#d1dee0"/><path d="m377.835938 283.523438-72.011719-14.339844-45.589844 48.6875 53.503906 69.148437 121.675781 3.757813zm0 0" fill="#b2bdc2"/><path d="m166.824219 182.972656-45.023438-57.996094-121.664062-3.761718 57.570312 107.246094 71.964844 14.457031zm0 0" fill="#d1dee0"/><path d="m217.777344 151.546875c-57.601563 0-104.460938 46.863281-104.460938 104.460937 0 57.601563 46.859375 104.460938 104.460938 104.460938 57.597656 0 104.457031-46.859375 104.457031-104.460938 0-57.597656-46.859375-104.460937-104.457031-104.460937zm0 0" fill="#ff4f19"/><path d="m217.777344 360.46875c57.597656 0 104.457031-46.859375 104.457031-104.460938 0-57.597656-46.859375-104.460937-104.457031-104.460937zm0 0" fill="#d43200"/><path d="m249.378906 224.394531c-17.425781-17.425781-45.78125-17.425781-63.207031 0-17.425781 17.429688-17.425781 45.78125 0 63.210938 8.710937 8.710937 20.15625 13.066406 31.601563 13.066406 11.445312 0 22.890624-4.355469 31.605468-13.066406 17.425782-17.429688 17.425782-45.78125 0-63.210938zm0 0" fill="#ffdb2d"/><path d="m217.777344 300.695312c12.320312 0 23.492187-5.015624 31.585937-13.105468 8.09375-8.09375 13.105469-19.269532 13.109375-31.589844-.003906-24.644531-20.050781-44.695312-44.695312-44.695312h-.003906zm0 0" fill="#ffb62d"/></svg>