<svg id="Flat" height="512" viewBox="0 0 512 512" width="512" xmlns="http://www.w3.org/2000/svg"><path d="m168 224v-128a16 16 0 0 0 -32 0v16a16 16 0 0 0 -32 0v144h-16l-16-48-8.71-26.12a31.984 31.984 0 0 0 -30.35-21.88h-8.94l16 48 8 48 24 64 16 48v64h128v-64l16-48v-160a16 16 0 0 0 -32 0v-48a16 16 0 0 0 -32 0z" fill="#f7cca9"/><g fill="#e0b999"><path d="m144 328a8 8 0 0 1 -8-8 56.063 56.063 0 0 0 -56-56 8 8 0 0 1 0-16 72.081 72.081 0 0 1 72 72 8 8 0 0 1 -8 8z"/><path d="m136 104a8 8 0 0 1 8 8v112a8 8 0 0 1 -16 0v-112a8 8 0 0 1 8-8z"/><path d="m168 104a8 8 0 0 1 8 8v112a8 8 0 0 1 -16 0v-112a8 8 0 0 1 8-8z"/><path d="m200 152a8 8 0 0 1 8 8v64a8 8 0 0 1 -16 0v-64a8 8 0 0 1 8-8z"/></g><path d="m344 224v-128a16 16 0 0 1 32 0v16a16 16 0 0 1 32 0v144h16l16-48 8.71-26.12a31.984 31.984 0 0 1 30.35-21.88h8.94l-16 48-8 48-24 64-16 48v64h-128v-64l-16-48v-160a16 16 0 0 1 32 0v-48a16 16 0 0 1 32 0z" fill="#f7cca9"/><path d="m368 328a8 8 0 0 0 8-8 56.063 56.063 0 0 1 56-56 8 8 0 0 0 0-16 72.081 72.081 0 0 0 -72 72 8 8 0 0 0 8 8z" fill="#e0b999"/><path d="m376 104a8 8 0 0 0 -8 8v112a8 8 0 0 0 16 0v-112a8 8 0 0 0 -8-8z" fill="#e0b999"/><path d="m344 104a8 8 0 0 0 -8 8v112a8 8 0 0 0 16 0v-112a8 8 0 0 0 -8-8z" fill="#e0b999"/><path d="m312 152a8 8 0 0 0 -8 8v64a8 8 0 0 0 16 0v-64a8 8 0 0 0 -8-8z" fill="#e0b999"/><path d="m304 312h16v16h-16z" fill="#35a872"/><path d="m192 312h16v16h-16z" fill="#35a872"/><path d="m368 248h16v16h-16z" fill="#35a872"/><path d="m128 248h16v16h-16z" fill="#35a872"/><path d="m400 328a8 8 0 0 1 -5.657-13.657l16-16a8 8 0 0 1 11.314 11.314l-16 16a7.974 7.974 0 0 1 -5.657 2.343z" fill="#3dc285"/><path d="m112 328a7.976 7.976 0 0 1 -5.657-2.343l-16-16a8 8 0 0 1 11.314-11.314l16 16a8 8 0 0 1 -5.657 13.657z" fill="#3dc285"/><circle cx="328" cy="272" fill="#3dc285" r="16"/><circle cx="192" cy="272" fill="#3dc285" r="16"/></svg>