<?xml version="1.0" encoding="iso-8859-1"?>
<!-- Generator: Adobe Illustrator 19.0.0, SVG Export Plug-In . SVG Version: 6.00 Build 0)  -->
<svg version="1.1" id="Capa_1" xmlns="http://www.w3.org/2000/svg" xmlns:xlink="http://www.w3.org/1999/xlink" x="0px" y="0px"
	 viewBox="0 0 512 512" style="enable-background:new 0 0 512 512;" xml:space="preserve">
<path style="fill:#0D70B2;" d="M165,60h-60c-8.291,0-15-6.709-15-15s6.709-15,15-15h60c8.291,0,16,6.709,16,15S173.291,60,165,60z"
	/>
<path style="fill:#095C92;" d="M287,60h-61c-8.291,0-15-6.709-15-15s6.709-15,15-15h61c8.291,0,15,6.709,15,15S295.291,60,287,60z"
	/>
<path style="fill:#0D70B2;" d="M212.199,76.199V135c0,8.401-6.599,15-15,15H196c-7.5-0.601-13.801-6.899-13.801-15V76.199
	c0-7.798,6.301-14.399,13.801-15h1.199C205.6,61.199,212.199,68.101,212.199,76.199z"/>
<path style="fill:#095C92;" d="M212.199,76.199V135c0,8.401-6.599,15-15,15H196V61.199h1.199
	C205.6,61.199,212.199,68.101,212.199,76.199z"/>
<path style="fill:#A8AFF1;" d="M422,160.499C408.5,153.6,393.199,150,377,150H257c-8.401,0-16,6.599-16,15v90
	c0,8.401,7.599,15,16,15h90c8.401,0,15,6.599,15,15v60c0,8.401,6.599,15,15,15h90c8.401,0,15-6.599,15-15v-90
	C482,213.3,457.4,177.001,422,160.499z"/>
<path style="fill:#1BD9DE;" d="M475.699,424.6L435.5,338.699C433.1,333.3,427.7,330,422,330s-11.1,3.3-13.5,8.699L367.7,425.2
	c-3.9,8.099-5.7,16.8-5.7,25.8c0,32.999,27.001,61,60,61s60-28.001,60-61C482,441.7,479.9,432.7,475.699,424.6z"/>
<path style="fill:#C5C9F7;" d="M135,270H15c-8.291,0-15-6.709-15-15v-90c0-8.291,6.709-15,15-15h120c8.291,0,15,6.709,15,15v90
	C150,263.291,143.291,270,135,270z"/>
<path style="fill:#1689FC;" d="M317,90c-24.814,0-45-20.186-45-45s20.186-45,45-45s45,20.186,45,45S341.814,90,317,90z"/>
<path style="fill:#18A7FC;" d="M75,90c-24.814,0-45-20.186-45-45S50.186,0,75,0s45,20.186,45,45S99.814,90,75,90z"/>
<path style="fill:#E1E4FB;" d="M226,120h-61c-24.901,0-45,20.099-45,45v90c0,24.901,20.099,45,45,45h61c24.901,0,46-20.099,46-45
	v-90C272,140.099,250.901,120,226,120z"/>
<path style="fill:#C5C9F7;" d="M272,165v90c0,24.901-21.099,45-46,45h-30V120h30C250.901,120,272,140.099,272,165z"/>
<path style="fill:#E1E4FB;" d="M512,345c0,8.401-6.599,15-15,15H347c-8.401,0-15-6.599-15-15s6.599-15,15-15h150
	C505.401,330,512,336.599,512,345z"/>
<path style="fill:#C5C9F7;" d="M512,345c0,8.401-6.599,15-15,15h-75v-30h75C505.401,330,512,336.599,512,345z"/>
<path style="fill:#18A7FC;" d="M196,0c-24.901,0-46,20.099-46,45v30c0,8.401,6.599,15,15,15h61c8.401,0,15-6.599,15-15V45
	C241,20.099,220.901,0,196,0z"/>
<path style="fill:#1689FC;" d="M241,45v30c0,8.401-6.599,15-15,15h-30V0C220.901,0,241,20.099,241,45z"/>
<g>
</g>
<g>
</g>
<g>
</g>
<g>
</g>
<g>
</g>
<g>
</g>
<g>
</g>
<g>
</g>
<g>
</g>
<g>
</g>
<g>
</g>
<g>
</g>
<g>
</g>
<g>
</g>
<g>
</g>
</svg>
